PathFileType	4	(X/Y/Z)	s02c0001.trc
DataRate	CameraRate	NumFrames	NumMarkers	Units	OrigDataRate	OrigDataStartFrame	OrigNumFrames
200	200	5	49	mm	200	500	2000
Frame#	Time	racr			lacr			c7			jug			rlel			rdr			llel			ldr			s2			lic			ric			lasi			rasi			rpsi			lpsi			rgt			lgt			rth1			rth2			rth3			rth4			rlfc			rmfc			rsh1			rsh2			rsh3			rsh4			rlmal			rmmal			rcal			rtoe			rmt5			rmt1			lth1			lth2			lth4			lth3			llfc			lmfc			lsh1			lsh2			lsh3			lsh4			llmal			lmmal			lcal			ltoe			lmt1			lmt5			
		X1	Y1	Z1	X2	Y2	Z2	X3	Y3	Z3	X4	Y4	Z4	X5	Y5	Z5	X6	Y6	Z6	X7	Y7	Z7	X8	Y8	Z8	X9	Y9	Z9	X10	Y10	Z10	X11	Y11	Z11	X12	Y12	Z12	X13	Y13	Z13	X14	Y14	Z14	X15	Y15	Z15	X16	Y16	Z16	X17	Y17	Z17	X18	Y18	Z18	X19	Y19	Z19	X20	Y20	Z20	X21	Y21	Z21	X22	Y22	Z22	X23	Y23	Z23	X24	Y24	Z24	X25	Y25	Z25	X26	Y26	Z26	X27	Y27	Z27	X28	Y28	Z28	X29	Y29	Z29	X30	Y30	Z30	X31	Y31	Z31	X32	Y32	Z32	X33	Y33	Z33	X34	Y34	Z34	X35	Y35	Z35	X36	Y36	Z36	X37	Y37	Z37	X38	Y38	Z38	X39	Y39	Z39	X40	Y40	Z40	X41	Y41	Z41	X42	Y42	Z42	X43	Y43	Z43	X44	Y44	Z44	X45	Y45	Z45	X46	Y46	Z46	X47	Y47	Z47	X48	Y48	Z48	X49	Y49	Z49	
500	2.5000	570.851746	1430.851562	566.237976	596.951843	1423.614868	162.828232	549.055115	1480.367432	358.849701	653.024170	1382.837524	366.497223	539.994019	1145.149658	636.170410	634.243652	1019.001221	779.201355	570.279968	1115.121826	128.650070	744.159058	1040.205322	23.196346	479.130127	974.259521	365.071228	637.848206	1017.722534	229.674957	604.964111	1020.487366	515.344360	683.795044	968.040527	261.260132	653.948547	971.294800	495.534637	488.979462	1000.413635	409.702179	500.441162	996.491333	325.163452	554.473022	886.586487	539.797180	570.148682	886.393066	206.217041	589.533630	802.019775	552.495667	607.120239	714.204346	549.731567	580.724976	632.949829	559.231262	640.316162	712.067017	531.656494	560.121277	499.170624	515.975586	563.331665	484.421600	411.686432	530.631836	397.898376	533.096680	544.502319	311.070557	517.493774	514.988159	230.140030	514.047485	564.684570	313.353149	483.694214	503.213318	101.252419	499.498047	515.158142	114.585312	421.631165	451.192108	53.638706	442.788422	726.979553	86.570160	498.835541	615.356750	48.269676	537.590820	657.247925	71.437798	436.110199	598.289612	759.999268	188.875565	608.014648	673.053284	195.123734	642.051758	670.280334	210.989975	571.160889	592.808411	204.120102	563.344543	495.212524	224.805817	559.802124	469.114777	322.773804	537.209106	399.686768	200.782486	555.439087	316.007111	215.651779	529.434387	229.191818	214.595398	575.229675	318.215515	250.879974	518.993591	114.238892	231.711700	541.855408	118.701607	309.830017	468.803802	58.379200	277.591766	751.513123	81.743866	249.400940	674.309570	70.384041	302.673645	646.791992	46.372318	196.228149	
501	2.5050	570.848511	1430.856079	566.213806	596.927917	1423.624023	162.809036	549.025513	1480.382324	358.853729	653.020203	1382.852417	366.483948	539.978699	1145.144531	636.153503	634.269897	1019.000671	779.178528	570.256165	1115.120117	128.647705	744.154358	1040.222412	23.185640	479.112732	974.263245	365.078613	637.839844	1017.712952	229.653519	604.977539	1020.490906	515.356934	683.781067	968.043274	261.250427	653.964111	971.310547	495.525970	488.990692	1000.409912	409.702972	500.439789	996.482117	325.169189	554.499878	886.580811	539.795532	570.112793	886.400940	206.229401	589.544250	802.022095	552.485474	607.126770	714.209167	549.722168	580.737244	632.955444	559.210022	640.324646	712.057129	531.628906	560.108704	499.194153	515.962830	563.332214	484.428711	411.687744	530.625549	397.902039	533.100403	544.506958	311.082214	517.515076	515.004395	230.139404	514.037476	564.693665	313.342163	483.692139	503.208313	101.249352	499.487488	516.205627	114.106056	421.399353	451.192810	53.660263	442.781921	726.975891	86.579536	498.828918	615.385010	48.233631	537.589050	657.248169	71.438705	436.111603	598.284790	760.007019	188.875641	608.012939	673.032715	195.118164	642.045776	670.293030	211.015762	571.144165	592.794373	204.117249	563.334839	495.213898	224.807968	559.814880	469.114838	322.767303	537.200195	399.690521	200.777145	555.439697	316.003906	215.633453	529.440613	229.185333	214.598236	575.206604	318.223999	250.866959	518.993896	114.232452	231.719910	541.868896	118.696983	309.819550	468.799042	58.390026	277.590729	751.479858	81.769814	249.413116	674.282715	70.372551	302.682587	646.776550	46.353069	196.230194	
502	2.5100	570.863831	1430.864868	566.222290	596.877747	1423.631958	162.804489	548.999390	1480.381958	358.844391	653.010010	1382.866821	366.455597	540.001038	1145.139038	636.142334	634.284607	1019.010498	779.140686	570.232483	1115.129517	128.652313	744.125549	1040.238159	23.175095	479.098480	974.265503	365.081757	637.837952	1017.703064	229.651550	604.966064	1020.482910	515.338989	683.766785	968.030334	261.238739	653.955444	971.313049	495.503662	488.974548	1000.406860	409.696625	500.424164	996.473633	325.171631	554.491821	886.593628	539.801880	570.103149	886.396851	206.223450	589.538757	802.025146	552.470764	607.118652	714.224548	549.718079	580.746399	632.947205	559.203491	640.339905	712.052856	531.612793	560.113586	499.186096	515.967041	563.327698	484.419250	411.672150	530.634766	397.912598	533.098755	544.509521	311.073425	517.490967	514.984375	230.138428	514.036499	564.679321	313.350250	483.685150	503.225739	101.251595	499.496582	515.148804	114.597488	421.628448	451.177612	53.651527	442.779236	726.981018	86.578468	498.845886	615.388367	48.255970	537.605896	657.237915	71.439110	436.100128	598.245972	760.000000	188.880569	607.986206	673.052551	195.118225	642.024048	670.289490	211.010239	571.124695	592.808533	204.128128	563.339233	495.210571	224.812744	559.800476	469.114044	322.771606	537.191101	399.689667	200.782349	555.434753	316.013947	215.647934	529.403320	229.205933	214.599533	575.212219	318.216461	250.856567	519.000854	114.225838	231.704651	541.870850	118.695122	309.819092	468.815582	58.373615	277.592010	751.507263	81.767906	249.413330	674.296448	70.385498	302.672241	646.784546	46.377480	196.226654	
503	2.5150	570.821899	1430.876221	566.194580	596.861877	1423.629272	162.793671	548.971252	1480.382568	358.835907	652.990173	1382.872192	366.444702	539.964294	1145.125366	636.094971	634.315430	1019.005859	779.109558	570.225647	1115.131104	128.634888	744.132874	1040.250000	23.133287	479.090179	974.252930	365.074036	637.813110	1017.708130	229.638672	604.964355	1020.486511	515.339722	683.744873	968.047974	261.223969	653.944702	971.317444	495.498566	488.959076	1000.407166	409.699585	500.411346	996.491211	325.159058	554.493835	886.588989	539.801453	570.078247	886.398804	206.204102	589.531128	802.027710	552.465332	607.121033	714.207947	549.702148	580.750366	632.956543	559.199585	640.338501	712.062988	531.604004	560.126221	499.182587	515.975525	563.359863	484.402954	411.666626	530.640137	397.904480	533.086487	544.511108	311.092712	517.510986	514.981995	230.121872	514.022949	564.691101	313.342865	483.694214	503.203583	101.248596	499.492126	516.195740	114.104019	421.391785	451.185944	53.639133	442.773956	726.958984	86.577988	498.843597	615.369324	48.258717	537.597290	657.243347	71.445953	436.088043	598.229492	760.000854	188.872681	607.982544	673.060303	195.112686	642.002869	670.286621	210.987503	571.107727	592.799011	204.106979	563.328125	495.206940	224.809204	559.815308	469.111237	322.764587	537.182983	399.685150	200.785248	555.438293	316.013733	215.646179	529.416565	229.203217	214.601273	575.205505	318.224701	250.874161	519.003906	114.235069	231.705338	541.855591	118.706238	309.824951	468.810547	58.377350	277.591217	751.508728	81.771576	249.394470	674.268860	70.379219	302.674500	646.751892	46.351570	196.250381	
504	2.5200	570.838928	1430.885010	566.196594	596.825806	1423.635864	162.775375	548.944092	1480.382690	358.826996	652.969971	1382.879272	366.420471	540.012390	1145.142578	636.108643	634.344482	1018.999268	779.096313	570.197327	1115.138062	128.631729	744.113647	1040.261475	23.132370	479.058868	974.261169	365.087067	637.802490	1017.707947	229.620850	604.959656	1020.494751	515.338074	683.728333	968.040894	261.210571	653.939514	971.338318	495.477295	488.936859	1000.407959	409.708618	500.384399	996.474976	325.162598	554.478394	886.594971	539.790100	570.052612	886.392273	206.220093	589.532898	802.038513	552.462036	607.128418	714.197510	549.690247	580.750183	632.959656	559.181702	640.324219	712.066956	531.607727	560.118652	499.203552	515.966797	563.324646	484.410309	411.674561	530.632385	397.903961	533.069946	544.499146	311.080719	517.500854	514.987976	230.124390	514.040466	564.674866	313.356720	483.676941	503.226105	101.251251	499.496582	516.209717	114.123100	421.407837	451.188354	53.655308	442.767212	726.980225	86.579025	498.815674	615.405701	48.291267	537.549866	657.244385	71.442162	436.118439	598.202515	760.008789	188.866913	607.950867	673.063416	195.087784	642.002014	670.292053	210.993988	571.115295	592.797302	204.112549	563.302673	495.209381	224.809677	559.780579	469.121277	322.785187	537.180359	399.696655	200.778091	555.424744	316.009003	215.652023	529.403381	229.212189	214.591873	575.207092	318.218933	250.867065	519.003845	114.232803	231.730042	541.846069	118.685112	309.830597	468.803864	58.370354	277.593109	751.507324	81.767899	249.413376	674.271240	70.367455	302.686493	646.785645	46.383724	196.233444	
